<svg width="49" height="36" viewBox="0 0 49 36" fill="none" xmlns="http://www.w3.org/2000/svg">
<g filter="url(#filter0_d_40001045_2389)">
<path d="M24.1632 8.18183C28.3588 7.83983 32.1594 7.99726 34.902 8.50965C36.2807 8.76723 37.3345 9.10491 38.028 9.47567C38.7677 9.87122 38.8439 10.1589 38.8483 10.2113C38.8525 10.2632 38.8247 10.5603 38.158 11.071C37.5338 11.5491 36.5484 12.0521 35.2297 12.5295C32.6063 13.4793 28.8814 14.2502 24.6857 14.5922C20.4898 14.9342 16.6885 14.7769 13.9458 14.2645C12.5676 14.0069 11.5143 13.67 10.821 13.2993C10.0804 12.9034 10.0048 12.6147 10.0006 12.5628C9.99642 12.5104 10.0249 12.2142 10.6909 11.704C11.3151 11.2259 12.2996 10.722 13.6182 10.2446C16.2417 9.29474 19.9673 8.52385 24.1632 8.18183Z" stroke="#FFD52E" stroke-width="2"/>
</g>
<path d="M17.5898 17.0048C17.1022 17.1544 16.7061 17.4037 16.2185 17.8824C15.0199 19.0692 13.7705 21.5525 13.3946 23.5272C13.2423 24.325 13.3032 24.5943 13.6283 24.5943C13.801 24.5943 13.7705 24.6841 13.415 25.442C12.9071 26.4992 12.5617 27.7558 12.7242 27.9553C12.7852 28.0251 13.0188 28.0849 13.2321 28.0849H13.6181L13.4759 28.5636C13.2321 29.3615 12.9477 30.8774 12.8664 31.7251C12.7649 33.0216 12.5414 33.6499 12.0335 34.1286C11.5764 34.5674 11.5459 34.8068 11.9116 34.9165C12.257 35.0262 13.5165 34.3381 14.187 33.6798C14.7253 33.1413 14.8066 33.1014 14.8675 33.2709C14.9793 33.5602 15.2535 33.5203 15.9239 33.0914C16.5639 32.6825 17.0819 32.1639 17.346 31.6553L17.5085 31.3361L17.6609 31.6054C17.8234 31.9146 17.9555 31.9345 18.4837 31.7151C19.215 31.4159 19.6924 30.7876 19.9667 29.7504L20.1089 29.2318L20.3832 29.8003C20.6981 30.4685 20.8809 30.5283 21.4294 30.1095C22.5772 29.2518 23.1765 28.0051 23.1765 26.4892C23.1765 25.6914 23.0242 25.4021 22.689 25.5817C22.4858 25.6814 22.4655 25.7811 22.4655 26.4294C22.4655 27.3569 22.2014 28.2146 21.7138 28.8628C21.1958 29.5609 21.0942 29.5709 20.7285 28.9825C20.5558 28.7132 20.2816 28.3841 20.1089 28.2744C19.662 27.9553 19.4893 28.1049 19.3979 28.8528C19.2963 29.7803 19.1338 30.2491 18.7986 30.6281C18.6259 30.8175 18.4532 30.9771 18.4126 30.9771C18.3719 30.9771 18.2907 30.6879 18.2297 30.3388C18.0774 29.4712 17.9047 29.1321 17.5999 29.1321C17.3663 29.1321 17.3358 29.1919 17.2241 29.8502C17.153 30.2491 17.0006 30.7777 16.8889 31.017C16.6654 31.4658 15.9138 32.3734 15.7614 32.3734C15.7208 32.3734 15.6293 32.1041 15.5684 31.7849C15.3754 30.8275 14.9285 30.7078 14.6847 31.5456C14.4511 32.3135 13.8314 33.261 13.4048 33.4804C13.222 33.5801 13.2017 33.5701 13.2626 33.4106C13.3032 33.3108 13.4251 32.6626 13.5369 31.9744C13.8416 30.1294 14.126 28.8229 14.4104 28.0051C14.5526 27.6062 14.6339 27.2172 14.6034 27.1375C14.5018 26.8782 14.2581 26.8582 13.9736 27.0776C13.8213 27.1973 13.6486 27.2871 13.5673 27.2871C13.2728 27.2871 13.8822 25.8509 14.7761 24.4248C15.091 23.9261 15.3551 23.4474 15.3551 23.3676C15.3551 23.0884 14.9793 23.0684 14.6237 23.3277C14.0549 23.7366 14.0447 23.7366 14.1463 23.2878C14.5425 21.5725 15.7411 19.3185 16.7975 18.2913C17.6609 17.4635 18.4126 17.4137 19.1439 18.1517C19.3775 18.3811 19.662 18.7501 19.7737 18.9595C20.9317 21.2533 23.0546 23.3975 24.1415 23.3975C25.137 23.3876 27.0771 21.5924 28.1538 19.6576C28.8242 18.4708 29.0985 18.1018 29.5251 17.8624C30.0432 17.5633 30.2971 17.5533 30.8659 17.8226C31.6989 18.2215 32.7045 19.5778 33.5069 21.4229C33.8523 22.1808 34.2789 23.597 34.2078 23.6768C34.1875 23.6967 34.0047 23.5671 33.8015 23.3975C33.4257 23.0684 33.1717 23.0385 32.9991 23.3078C32.9178 23.4374 32.9991 23.6269 33.3546 24.1655C34.1063 25.2825 34.99 27.1873 34.8376 27.3469C34.8071 27.3668 34.6141 27.2771 34.411 27.1375C33.9742 26.8482 33.9133 26.8383 33.7406 27.0377C33.6288 27.1674 33.6492 27.3269 33.8726 27.9652C34.218 28.9426 34.3805 29.6507 34.6954 31.5755C34.8376 32.4232 34.99 33.231 35.0205 33.3707C35.0814 33.61 35.0712 33.6 34.7056 33.2709C34.1977 32.8022 33.8929 32.3135 33.6593 31.6054C33.5171 31.1866 33.4155 31.017 33.2632 30.9971C32.9686 30.9572 32.8162 31.1965 32.7553 31.8149C32.7146 32.1739 32.6537 32.3734 32.5623 32.3734C32.3693 32.3734 31.709 31.5855 31.4449 31.017C31.3027 30.7378 31.1402 30.1992 31.0691 29.8202C30.9675 29.2318 30.9167 29.1321 30.7237 29.1022C30.4393 29.0623 30.2362 29.4313 30.0736 30.3089C30.0025 30.6779 29.9213 30.9771 29.8806 30.9771C29.7689 30.9771 29.4032 30.5483 29.2305 30.1992C29.129 30.0197 29.0071 29.4911 28.9461 29.0324C28.8547 28.3642 28.7938 28.1747 28.6414 28.1248C28.3976 28.055 27.9507 28.414 27.585 28.9825C27.4326 29.2318 27.2904 29.4512 27.2701 29.4712C27.2498 29.5011 27.0771 29.3615 26.874 29.172C26.2035 28.5437 25.8175 27.5264 25.8175 26.3795C25.8175 25.6814 25.6855 25.4321 25.3808 25.5517C24.9948 25.6914 25.0659 27.2372 25.5128 28.404C25.7464 29.0124 26.2645 29.6607 26.8638 30.0895C27.4631 30.5184 27.6155 30.4785 27.9202 29.8103L28.1741 29.2318L28.4281 30.0097C28.6211 30.6281 28.7734 30.8874 29.1188 31.2264C29.84 31.9345 30.6933 32.0542 30.6933 31.4558C30.6933 31.3162 30.8355 31.4558 31.1097 31.8548C31.516 32.4631 31.9223 32.8321 32.6334 33.251C33.0803 33.5203 33.2936 33.5302 33.4257 33.2909C33.5171 33.1213 33.5984 33.1712 34.1672 33.7197C35.1322 34.6472 36.3511 35.1559 36.6152 34.747C36.7168 34.5974 36.666 34.5076 36.3105 34.1785C35.7823 33.6798 35.6198 33.1912 35.4166 31.5256C35.2642 30.269 34.99 28.9227 34.7665 28.3542C34.6649 28.0849 34.6649 28.0849 35.0509 28.0849C35.6705 28.0849 35.7416 27.9154 35.4877 26.9978C35.3658 26.569 35.1017 25.8509 34.8782 25.4021C34.5532 24.724 34.5126 24.5943 34.6649 24.5943C34.7563 24.5943 34.8884 24.5245 34.9595 24.4547C35.2236 24.1355 34.4516 21.5226 33.6695 20.1064C32.8061 18.5306 32.0341 17.6331 31.2215 17.2242C29.8197 16.526 28.8547 17.0447 27.6053 19.1889C27.2295 19.8471 26.6302 20.7148 26.2848 21.1137C25.6246 21.9016 24.5377 22.6994 24.1415 22.6994C23.4102 22.6994 21.7545 21.0439 20.7996 19.3484C20.048 18.022 19.5807 17.4635 18.9814 17.1643C18.4634 16.915 18.057 16.8651 17.5898 17.0048Z" fill="url(#paint0_linear_40001045_2389)" stroke="url(#paint1_linear_40001045_2389)" stroke-width="0.8"/>
<defs>
<filter id="filter0_d_40001045_2389" x="0" y="0" width="48.8486" height="26.7743" filterUnits="userSpaceOnUse" color-interpolation-filters="sRGB">
<feFlood flood-opacity="0" result="BackgroundImageFix"/>
<feColorMatrix in="SourceAlpha" type="matrix" values="0 0 0 0 0 0 0 0 0 0 0 0 0 0 0 0 0 0 127 0" result="hardAlpha"/>
<feOffset dy="2"/>
<feGaussianBlur stdDeviation="4.5"/>
<feColorMatrix type="matrix" values="0 0 0 0 1 0 0 0 0 1 0 0 0 0 1 0 0 0 1 0"/>
<feBlend mode="normal" in2="BackgroundImageFix" result="effect1_dropShadow_40001045_2389"/>
<feBlend mode="normal" in="SourceGraphic" in2="effect1_dropShadow_40001045_2389" result="shape"/>
</filter>
<linearGradient id="paint0_linear_40001045_2389" x1="24.1614" y1="34.9281" x2="24.1614" y2="16.9281" gradientUnits="userSpaceOnUse">
<stop stop-color="#FB923C"/>
<stop offset="0.5" stop-color="#FB7185"/>
<stop offset="1" stop-color="#F472B6"/>
</linearGradient>
<linearGradient id="paint1_linear_40001045_2389" x1="24.1614" y1="34.9281" x2="24.1614" y2="16.9281" gradientUnits="userSpaceOnUse">
<stop stop-color="#FB923C"/>
<stop offset="0.5" stop-color="#FB7185"/>
<stop offset="1" stop-color="#F472B6"/>
</linearGradient>
</defs>
</svg>
