<svg width="20" height="20" viewBox="0 0 20 20" fill="none" xmlns="http://www.w3.org/2000/svg">
<path d="M17.5 2.49991L10.2108 9.78913M10.2108 9.78913L11.1641 10.7425C11.6073 11.1856 11.7479 11.8482 11.5229 12.4332L10.9584 13.901M10.2108 9.78913L9.25743 8.83578C8.81426 8.39261 8.15167 8.252 7.5667 8.47698L6.09891 9.04152M10.9584 13.901L9.9654 16.4828C9.55341 17.5539 8.17529 17.8464 7.36377 17.0349L4.04298 13.7141L2.96503 12.6361C2.15351 11.8246 2.44596 10.4465 3.51714 10.0345L6.09891 9.04152M6.09891 9.04152L10.9584 13.901M4.04298 13.7141L6.00546 12.3123" stroke="#EF4444" stroke-width="1.5" stroke-linecap="round" stroke-linejoin="round"/>
</svg>
