<svg width="20" height="20" viewBox="0 0 20 20" fill="none" xmlns="http://www.w3.org/2000/svg">
<path d="M10 3C13.8656 3 17 6.13438 17 10C17 13.8656 13.8656 17 10 17C6.13438 17 3 13.8656 3 10C3 6.13438 6.13438 3 10 3ZM10 18C14.4187 18 18 14.4187 18 10C18 5.58125 14.4187 2 10 2C5.58125 2 2 5.58125 2 10C2 14.4187 5.58125 18 10 18ZM8.5 13C8.225 13 8 13.225 8 13.5C8 13.775 8.225 14 8.5 14H11.5C11.775 14 12 13.775 12 13.5C12 13.225 11.775 13 11.5 13H10.5V9.5C10.5 9.225 10.275 9 10 9H8.5C8.225 9 8 9.225 8 9.5C8 9.775 8.225 10 8.5 10H9.5V13H8.5ZM10 7.75C10.4156 7.75 10.75 7.41563 10.75 7C10.75 6.58437 10.4156 6.25 10 6.25C9.58437 6.25 9.25 6.58437 9.25 7C9.25 7.41563 9.58437 7.75 10 7.75Z" fill="#23262F"/>
</svg>
