<svg width="60" height="30" viewBox="0 0 60 30" fill="none" xmlns="http://www.w3.org/2000/svg">
<g filter="url(#filter0_d_40001041_2409)">
<path d="M29.5523 8.24793C35.2696 7.78189 40.4614 7.99529 44.2234 8.69809C46.1117 9.0509 47.5829 9.51706 48.5698 10.0447C49.6035 10.5975 49.8488 11.0708 49.8699 11.3301C49.891 11.5894 49.7256 12.0962 48.7951 12.809C47.9067 13.4895 46.5303 14.1868 44.7241 14.8408C41.1256 16.1436 36.0371 17.196 30.3197 17.662C24.6024 18.1281 19.4106 17.9137 15.6486 17.2109C13.7603 16.8581 12.2892 16.3929 11.3023 15.8652C10.2687 15.3125 10.0234 14.8392 10.0022 14.5799C9.98103 14.3207 10.1465 13.8138 11.077 13.101C11.9654 12.4204 13.3417 11.7221 15.1479 11.0682C18.7464 9.76538 23.8351 8.71398 29.5523 8.24793Z" stroke="#FFD52E" stroke-width="2"/>
</g>
<defs>
<filter id="filter0_d_40001041_2409" x="0" y="0" width="59.8721" height="29.9097" filterUnits="userSpaceOnUse" color-interpolation-filters="sRGB">
<feFlood flood-opacity="0" result="BackgroundImageFix"/>
<feColorMatrix in="SourceAlpha" type="matrix" values="0 0 0 0 0 0 0 0 0 0 0 0 0 0 0 0 0 0 127 0" result="hardAlpha"/>
<feOffset dy="2"/>
<feGaussianBlur stdDeviation="4.5"/>
<feColorMatrix type="matrix" values="0 0 0 0 1 0 0 0 0 1 0 0 0 0 1 0 0 0 1 0"/>
<feBlend mode="normal" in2="BackgroundImageFix" result="effect1_dropShadow_40001041_2409"/>
<feBlend mode="normal" in="SourceGraphic" in2="effect1_dropShadow_40001041_2409" result="shape"/>
</filter>
</defs>
</svg>
