<svg width="20" height="20" viewBox="0 0 20 20" fill="none" xmlns="http://www.w3.org/2000/svg">
<path d="M9.5 11.5C12.5375 11.5 15 13.9625 15 17V17.5C15 17.775 14.775 18 14.5 18C14.225 18 14 17.775 14 17.5V17C14 14.5156 11.9844 12.5 9.5 12.5H6.5C4.01562 12.5 2 14.5156 2 17V17.5C2 17.775 1.775 18 1.5 18C1.225 18 1 17.775 1 17.5V17C1 13.9625 3.4625 11.5 6.5 11.5H9.5ZM16.5 4.75C16.775 4.75 17 4.975 17 5.25V7H18.75C19.025 7 19.25 7.225 19.25 7.5C19.25 7.775 19.025 8 18.75 8H17V9.75C17 10.025 16.775 10.25 16.5 10.25C16.225 10.25 16 10.025 16 9.75V8H14.25C13.975 8 13.75 7.775 13.75 7.5C13.75 7.225 13.975 7 14.25 7H16V5.25C16 4.975 16.225 4.75 16.5 4.75ZM8 10C5.79063 10 4 8.20937 4 6C4 3.79063 5.79063 2 8 2C10.2094 2 12 3.79063 12 6C12 8.20937 10.2094 10 8 10ZM8 3C6.34375 3 5 4.34375 5 6C5 7.65625 6.34375 9 8 9C9.65625 9 11 7.65625 11 6C11 4.34375 9.65625 3 8 3Z" fill="#23262F"/>
</svg>
