<svg width="20" height="20" viewBox="0 0 20 20" fill="none" xmlns="http://www.w3.org/2000/svg">
<path d="M13.4367 3.95833C15.1055 3.95833 16.4583 5.31119 16.4583 6.97998V9.16666C16.4583 9.51184 16.1785 9.79166 15.8333 9.79166C15.4882 9.79166 15.2083 9.51184 15.2083 9.16666V6.97998C15.2083 6.00155 14.4151 5.20833 13.4367 5.20833C12.659 5.20835 11.9719 5.71581 11.7432 6.45914L9.39941 14.078C9.04024 15.2452 7.96118 16.0417 6.73991 16.0417C5.20377 16.0415 3.95853 14.7962 3.95833 13.2601V10.4167C3.95833 10.0715 4.23816 9.79166 4.58333 9.79166C4.92851 9.79166 5.20833 10.0715 5.20833 10.4167V13.2601C5.20853 14.1059 5.89413 14.7915 6.73991 14.7917C7.41244 14.7917 8.00697 14.3529 8.20475 13.7101L10.5485 6.0913C10.9386 4.82348 12.1102 3.95835 13.4367 3.95833Z" fill="#23262F"/>
<path fill-rule="evenodd" clip-rule="evenodd" d="M15 10.8333C16.3807 10.8333 17.5 11.9526 17.5 13.3333C17.5 14.714 16.3807 15.8333 15 15.8333C13.6193 15.8333 12.5 14.714 12.5 13.3333C12.5 11.9526 13.6193 10.8333 15 10.8333ZM15 12.0833C14.3096 12.0833 13.75 12.643 13.75 13.3333C13.75 14.0237 14.3096 14.5833 15 14.5833C15.6904 14.5833 16.25 14.0237 16.25 13.3333C16.25 12.643 15.6904 12.0833 15 12.0833Z" fill="#23262F"/>
<path fill-rule="evenodd" clip-rule="evenodd" d="M5 3.33333C6.38071 3.33333 7.5 4.45262 7.5 5.83333C7.5 7.21404 6.38071 8.33333 5 8.33333C3.61929 8.33333 2.5 7.21404 2.5 5.83333C2.5 4.45262 3.61929 3.33333 5 3.33333ZM5 4.58333C4.30964 4.58333 3.75 5.14297 3.75 5.83333C3.75 6.52368 4.30964 7.08333 5 7.08333C5.69036 7.08333 6.25 6.52368 6.25 5.83333C6.25 5.14297 5.69036 4.58333 5 4.58333Z" fill="#23262F"/>
</svg>
