<svg width="14" height="21" viewBox="0 0 14 21" fill="none" xmlns="http://www.w3.org/2000/svg">
<g clip-path="url(#clip0_40001043_2386)">
<path d="M7.16554 1.08093C6.65846 1.23884 6.24647 1.50202 5.73939 2.00732C4.49284 3.26006 3.19347 5.88133 2.8026 7.96571C2.64414 8.80788 2.70752 9.09212 3.04557 9.09212C3.22516 9.09212 3.19347 9.18686 2.82373 9.98693C2.29553 11.1028 1.93635 12.4292 2.10537 12.6398C2.16876 12.7135 2.41173 12.7766 2.63357 12.7766H3.03501L2.88711 13.2819C2.63357 14.1241 2.33778 15.7242 2.25327 16.6191C2.14763 17.9876 1.91522 18.6508 1.38702 19.1561C0.91164 19.6193 0.879948 19.872 1.26025 19.9878C1.61943 20.1036 2.92937 19.3772 3.62659 18.6824C4.18648 18.1139 4.271 18.0718 4.33438 18.2508C4.45058 18.5561 4.73581 18.514 5.43304 18.0613C6.09857 17.6297 6.63734 17.0823 6.912 16.5454L7.08102 16.2085L7.23948 16.4927C7.40851 16.8191 7.54584 16.8401 8.09517 16.6085C8.85578 16.2927 9.35229 15.6295 9.63752 14.5347L9.78541 13.9873L10.0706 14.5873C10.3981 15.2926 10.5883 15.3558 11.1587 14.9137C12.3525 14.0083 12.9757 12.6924 12.9757 11.0923C12.9757 10.2501 12.8173 9.94482 12.4687 10.1343C12.2574 10.2396 12.2363 10.3449 12.2363 11.0291C12.2363 12.0081 11.9616 12.9135 11.4545 13.5978C10.9158 14.3347 10.8101 14.3452 10.4298 13.7241C10.2502 13.4398 9.965 13.0924 9.78541 12.9767C9.3206 12.6398 9.14101 12.7977 9.04593 13.5872C8.94029 14.5663 8.77127 15.061 8.42265 15.4611C8.24307 15.6611 8.06348 15.8295 8.02122 15.8295C7.97897 15.8295 7.89445 15.5242 7.83107 15.1558C7.67261 14.2399 7.49302 13.882 7.1761 13.882C6.93313 13.882 6.90144 13.9452 6.78523 14.6399C6.71128 15.061 6.55282 15.619 6.43662 15.8716C6.20421 16.3454 5.42247 17.3033 5.26401 17.3033C5.22176 17.3033 5.12668 17.0191 5.0633 16.6822C4.86258 15.6716 4.39776 15.5453 4.14423 16.4296C3.90126 17.2402 3.25685 18.2402 2.81316 18.4718C2.62301 18.5771 2.60188 18.5666 2.66527 18.3982C2.70752 18.2929 2.83429 17.6086 2.95049 16.8822C3.26741 14.9347 3.56321 13.5556 3.859 12.6924C4.0069 12.2713 4.09141 11.8608 4.05972 11.7766C3.95408 11.5028 3.70054 11.4818 3.40475 11.7134C3.24629 11.8397 3.0667 11.9345 2.98219 11.9345C2.67583 11.9345 3.30967 10.4185 4.2393 8.91316C4.56679 8.3868 4.84145 7.88149 4.84145 7.79727C4.84145 7.50251 4.45058 7.48146 4.08084 7.75517C3.48926 8.18678 3.4787 8.18678 3.58434 7.71306C3.99633 5.90238 5.24289 3.52324 6.34154 2.43894C7.23948 1.56518 8.02122 1.51254 8.78183 2.29156C9.0248 2.53368 9.3206 2.92319 9.4368 3.14426C10.6411 5.56551 12.849 7.82886 13.9793 7.82886C15.0146 7.81833 17.0323 5.92344 18.1521 3.88116C18.8493 2.62843 19.1346 2.23892 19.5783 1.98627C20.117 1.67045 20.3811 1.65992 20.9727 1.94416C21.839 2.36525 22.8848 3.79694 23.7193 5.74447C24.0785 6.54454 24.5222 8.0394 24.4483 8.12362C24.4271 8.14467 24.237 8.00782 24.0257 7.82886C23.6348 7.48146 23.3707 7.44988 23.1911 7.73411C23.1066 7.87097 23.1911 8.07098 23.5609 8.63945C24.3426 9.81849 25.2617 11.8292 25.1032 11.9976C25.0715 12.0187 24.8708 11.9239 24.6595 11.7766C24.2053 11.4713 24.1419 11.4607 23.9623 11.6713C23.8461 11.8081 23.8672 11.9766 24.0997 12.6503C24.4588 13.682 24.6279 14.4294 24.9553 16.4611C25.1032 17.356 25.2617 18.2087 25.2934 18.356C25.3568 18.6087 25.3462 18.5982 24.9659 18.2508C24.4377 17.756 24.1208 17.2402 23.8778 16.4927C23.7299 16.0506 23.6243 15.8716 23.4658 15.8506C23.1595 15.8085 23.001 16.0611 22.9376 16.7138C22.8954 17.0928 22.832 17.3033 22.7369 17.3033C22.5362 17.3033 21.8495 16.4717 21.5749 15.8716C21.427 15.5769 21.2579 15.0084 21.184 14.6084C21.0783 13.9873 21.0255 13.882 20.8248 13.8504C20.529 13.8083 20.3177 14.1978 20.1487 15.1242C20.0748 15.5137 19.9902 15.8295 19.948 15.8295C19.8318 15.8295 19.4515 15.3768 19.2719 15.0084C19.1663 14.8189 19.0395 14.261 18.9761 13.7767C18.881 13.0714 18.8176 12.8714 18.6592 12.8187C18.4056 12.7451 17.9408 13.124 17.5605 13.7241C17.4021 13.9873 17.2542 14.2189 17.233 14.2399C17.2119 14.2715 17.0323 14.1241 16.821 13.9241C16.1238 13.2609 15.7224 12.1871 15.7224 10.9765C15.7224 10.2396 15.5851 9.9764 15.2681 10.1027C14.8667 10.2501 14.9407 11.8818 15.4055 13.1135C15.6484 13.7557 16.1872 14.4399 16.8105 14.8926C17.4338 15.3453 17.5922 15.3032 17.9091 14.5978L18.1732 13.9873L18.4373 14.8084C18.6381 15.4611 18.7965 15.7348 19.1557 16.0927C19.9057 16.8401 20.7931 16.9665 20.7931 16.3348C20.7931 16.1874 20.941 16.3348 21.2262 16.7559C21.6488 17.3981 22.0714 17.7876 22.8108 18.2297C23.2757 18.514 23.4975 18.5245 23.6348 18.2718C23.7299 18.0929 23.8144 18.1455 24.406 18.7245C25.4096 19.7035 26.6773 20.2404 26.9519 19.8088C27.0576 19.6509 27.0048 19.5561 26.635 19.2087C26.0857 18.6824 25.9167 18.1666 25.7054 16.4085C25.5469 15.0821 25.2617 13.6609 25.0293 13.0609C24.9236 12.7766 24.9236 12.7766 25.3251 12.7766C25.9695 12.7766 26.0434 12.5977 25.7793 11.6292C25.6526 11.1765 25.3779 10.4185 25.1455 9.94482C24.8074 9.22897 24.7652 9.09212 24.9236 9.09212C25.0187 9.09212 25.1561 9.01843 25.23 8.94474C25.5047 8.60787 24.7018 5.84975 23.8884 4.35488C22.9904 2.69159 22.1876 1.74414 21.3424 1.31253C19.8846 0.575624 18.881 1.12304 17.5817 3.38638C17.1908 4.08118 16.5675 4.99704 16.2083 5.41813C15.5217 6.24978 14.3913 7.09195 13.9793 7.09195C13.2187 7.09195 11.4968 5.34444 10.5038 3.55482C9.72203 2.1547 9.23608 1.56518 8.61281 1.24936C8.07404 0.986184 7.65148 0.933548 7.16554 1.08093Z" fill="url(#paint0_linear_40001043_2386)" stroke="url(#paint1_linear_40001043_2386)" stroke-width="0.8"/>
</g>
<defs>
<linearGradient id="paint0_linear_40001043_2386" x1="14" y1="20" x2="14" y2="1" gradientUnits="userSpaceOnUse">
<stop stop-color="#FB923C"/>
<stop offset="0.5" stop-color="#FB7185"/>
<stop offset="1" stop-color="#F472B6"/>
</linearGradient>
<linearGradient id="paint1_linear_40001043_2386" x1="14" y1="20" x2="14" y2="1" gradientUnits="userSpaceOnUse">
<stop stop-color="#FB923C"/>
<stop offset="0.5" stop-color="#FB7185"/>
<stop offset="1" stop-color="#F472B6"/>
</linearGradient>
<clipPath id="clip0_40001043_2386">
<rect width="14" height="21" fill="white"/>
</clipPath>
</defs>
</svg>
