<svg width="20" height="20" viewBox="0 0 20 20" fill="none" xmlns="http://www.w3.org/2000/svg">
<path d="M9.5 2.49999C9.5 2.22499 9.725 1.99999 10 1.99999C10.275 1.99999 10.5 2.22499 10.5 2.49999V3.02499C13.0281 3.27499 15 5.40624 15 7.99999V8.32187C15 9.73124 15.4812 11.1 16.3594 12.2L16.675 12.5937C16.8844 12.8562 17 13.1812 17 13.5187C17 14.3375 16.3375 15 15.5188 15H4.48125C3.6625 15 3 14.3375 3 13.5187C3 13.1812 3.11563 12.8562 3.325 12.5937L3.64062 12.2C4.51875 11.1 5 9.73124 5 8.32187V7.99999C5 5.40624 6.97187 3.27499 9.5 3.02499V2.49999ZM6 7.99999V8.32187C6 9.95937 5.44375 11.5469 4.41875 12.825L4.10625 13.2187C4.0375 13.3031 4 13.4094 4 13.5187C4 13.7844 4.21562 14 4.48125 14H15.5188C15.7844 14 16 13.7844 16 13.5187C16 13.4094 15.9625 13.3031 15.8938 13.2187L15.5781 12.825C14.5562 11.5469 14 9.95937 14 8.32187V7.99999C14 5.79062 12.2094 3.99999 10 3.99999C7.79063 3.99999 6 5.79062 6 7.99999ZM10 18C9.02188 18 8.1875 17.375 7.87813 16.5H9C9.22813 16.8031 9.59062 17 10 17C10.4094 17 10.7719 16.8031 11 16.5H12.1219C11.8125 17.375 10.9781 18 10 18ZM5.09375 3.11249C3.80313 4.34374 3 6.07812 3 7.99999C3 8.27499 2.775 8.49999 2.5 8.49999C2.225 8.49999 2 8.27499 2 7.99999C2 5.79062 2.925 3.79999 4.40625 2.38749C4.60625 2.19687 4.92188 2.20624 5.1125 2.40624C5.30313 2.60624 5.29375 2.92187 5.09688 3.11249H5.09375ZM15.5938 2.38749C17.075 3.79999 18 5.79062 18 7.99999C18 8.27499 17.775 8.49999 17.5 8.49999C17.225 8.49999 17 8.27499 17 7.99999C17 6.07812 16.1969 4.34062 14.9062 3.11249C14.7062 2.92187 14.7 2.60624 14.8906 2.40624C15.0812 2.20624 15.3969 2.19999 15.5969 2.39062L15.5938 2.38749Z" fill="#23262F"/>
</svg>
