<svg width="20" height="20" viewBox="0 0 20 20" fill="none" xmlns="http://www.w3.org/2000/svg">
<path d="M4.4 13.4C4.65313 13.7156 4.69375 14.1531 4.5 14.5063L3.24375 16.8063L6.4 15.4531C6.64688 15.3469 6.925 15.3438 7.175 15.4469C8.0375 15.8 8.99375 15.9969 10 15.9969C13.9281 15.9969 17 13.0281 17 9.49689C17 5.96564 13.9281 3.00002 10 3.00002C6.07188 3.00002 3 5.96877 3 9.50002C3 10.9594 3.51563 12.3063 4.4 13.4ZM3.62188 14.0281C2.60313 12.7688 2 11.2 2 9.50002C2 5.35939 5.58125 2.00002 10 2.00002C14.4187 2.00002 18 5.35939 18 9.50002C18 13.6406 14.4187 17 10 17C8.85938 17 7.775 16.775 6.79375 16.375L3.15625 17.9344C3.04062 17.9844 2.92188 18 2.79688 18C2.35625 18 2 17.6438 2 17.2031C2 17.0688 2.03437 16.9375 2.09687 16.8219L3.62188 14.0281Z" fill="#23262F"/>
</svg>
