<svg width="20" height="20" viewBox="0 0 20 20" fill="none" xmlns="http://www.w3.org/2000/svg">
<path d="M12.7336 3.36884C12.9711 3.13134 13.2898 3.00009 13.6242 3.00009C13.9586 3.00009 14.2773 3.13134 14.5148 3.36884L15.6304 4.48447C15.8679 4.72197 15.9992 5.04072 15.9992 5.37509C15.9992 5.70947 15.8679 6.02822 15.6304 6.26572L13.8023 8.09384L10.9054 5.19697L12.7336 3.36884ZM10.1961 5.90634L13.0929 8.80322L6.8023 15.0938L3.90543 12.197L10.1961 5.90634ZM3.09918 13.3251C3.13355 13.197 3.18356 13.072 3.24918 12.9563L6.04293 15.7501C5.9273 15.8126 5.80231 15.8626 5.67418 15.9001L2.10856 16.8907L3.09918 13.3251ZM13.6242 2.00009C13.0242 2.00009 12.4492 2.23759 12.0273 2.66259L2.83981 11.8501C2.50543 12.1845 2.26168 12.6032 2.13356 13.0595L1.02731 17.0501C0.95543 17.3095 1.0273 17.5907 1.22105 17.7813C1.4148 17.972 1.69293 18.047 1.95231 17.9751L5.94605 16.8657C6.4023 16.7376 6.81793 16.497 7.15543 16.1595L16.3429 6.97197C16.7617 6.55009 16.9992 5.97509 16.9992 5.37509C16.9992 4.77509 16.7617 4.20009 16.3367 3.77822L15.2211 2.66259C14.7992 2.23759 14.2242 2.00009 13.6242 2.00009ZM9.49918 17.0001C9.22418 17.0001 8.99918 17.2251 8.99918 17.5001C8.99918 17.7751 9.22418 18.0001 9.49918 18.0001H18.4992C18.7742 18.0001 18.9992 17.7751 18.9992 17.5001C18.9992 17.2251 18.7742 17.0001 18.4992 17.0001H9.49918Z" fill="#23262F"/>
</svg>
