<svg width="14" height="21" viewBox="0 0 14 21" fill="none" xmlns="http://www.w3.org/2000/svg">
<g clip-path="url(#clip0_40001043_2387)">
<path d="M-6.83446 1.08093C-7.34154 1.23884 -7.75353 1.50202 -8.26061 2.00732C-9.50716 3.26006 -10.8065 5.88133 -11.1974 7.96571C-11.3559 8.80788 -11.2925 9.09212 -10.9544 9.09212C-10.7748 9.09212 -10.8065 9.18686 -11.1763 9.98693C-11.7045 11.1028 -12.0637 12.4292 -11.8946 12.6398C-11.8312 12.7135 -11.5883 12.7766 -11.3664 12.7766H-10.965L-11.1129 13.2819C-11.3664 14.1241 -11.6622 15.7242 -11.7467 16.6191C-11.8524 17.9876 -12.0848 18.6508 -12.613 19.1561C-13.0884 19.6193 -13.1201 19.872 -12.7397 19.9878C-12.3806 20.1036 -11.0706 19.3772 -10.3734 18.6824C-9.81352 18.1139 -9.729 18.0718 -9.66562 18.2508C-9.54942 18.5561 -9.26419 18.514 -8.56696 18.0613C-7.90143 17.6297 -7.36266 17.0823 -7.088 16.5454L-6.91898 16.2085L-6.76051 16.4927C-6.59149 16.8191 -6.45416 16.8401 -5.90483 16.6085C-5.14422 16.2927 -4.64771 15.6295 -4.36248 14.5347L-4.21459 13.9873L-3.92936 14.5873C-3.60187 15.2926 -3.41172 15.3558 -2.84127 14.9137C-1.64753 14.0083 -1.02425 12.6924 -1.02425 11.0923C-1.02425 10.2501 -1.18271 9.94482 -1.53133 10.1343C-1.74261 10.2396 -1.76374 10.3449 -1.76374 11.0291C-1.76374 12.0081 -2.0384 12.9135 -2.54547 13.5978C-3.08424 14.3347 -3.18988 14.3452 -3.57018 13.7241C-3.74977 13.4398 -4.035 13.0924 -4.21459 12.9767C-4.6794 12.6398 -4.85899 12.7977 -4.95407 13.5872C-5.05971 14.5663 -5.22873 15.061 -5.57734 15.4611C-5.75693 15.6611 -5.93652 15.8295 -5.97878 15.8295C-6.02103 15.8295 -6.10555 15.5242 -6.16893 15.1558C-6.32739 14.2399 -6.50698 13.882 -6.8239 13.882C-7.06687 13.882 -7.09856 13.9452 -7.21477 14.6399C-7.28872 15.061 -7.44718 15.619 -7.56338 15.8716C-7.79579 16.3454 -8.57753 17.3033 -8.73599 17.3033C-8.77824 17.3033 -8.87332 17.0191 -8.9367 16.6822C-9.13742 15.6716 -9.60224 15.5453 -9.85577 16.4296C-10.0987 17.2402 -10.7431 18.2402 -11.1868 18.4718C-11.377 18.5771 -11.3981 18.5666 -11.3347 18.3982C-11.2925 18.2929 -11.1657 17.6086 -11.0495 16.8822C-10.7326 14.9347 -10.4368 13.5556 -10.141 12.6924C-9.9931 12.2713 -9.90859 11.8608 -9.94028 11.7766C-10.0459 11.5028 -10.2995 11.4818 -10.5953 11.7134C-10.7537 11.8397 -10.9333 11.9345 -11.0178 11.9345C-11.3242 11.9345 -10.6903 10.4185 -9.7607 8.91316C-9.43321 8.3868 -9.15855 7.88149 -9.15855 7.79727C-9.15855 7.50251 -9.54942 7.48146 -9.91916 7.75517C-10.5107 8.18678 -10.5213 8.18678 -10.4157 7.71306C-10.0037 5.90238 -8.75711 3.52324 -7.65846 2.43894C-6.76052 1.56518 -5.97878 1.51254 -5.21817 2.29156C-4.9752 2.53368 -4.6794 2.92319 -4.5632 3.14426C-3.3589 5.56551 -1.15102 7.82886 -0.0206732 7.82886C1.0146 7.81833 3.03233 5.92344 4.15211 3.88116C4.84934 2.62843 5.13457 2.23892 5.57826 1.98627C6.11702 1.67045 6.38112 1.65992 6.97271 1.94416C7.83896 2.36525 8.88479 3.79694 9.71935 5.74447C10.0785 6.54454 10.5222 8.0394 10.4483 8.12362C10.4271 8.14467 10.237 8.00782 10.0257 7.82886C9.63484 7.48146 9.37074 7.44988 9.19115 7.73411C9.10664 7.87097 9.19115 8.07098 9.56089 8.63945C10.3426 9.8185 11.2617 11.8292 11.1032 11.9976C11.0715 12.0187 10.8708 11.9239 10.6595 11.7766C10.2053 11.4713 10.1419 11.4607 9.96232 11.6713C9.84612 11.8081 9.86725 11.9766 10.0997 12.6503C10.4588 13.682 10.6279 14.4294 10.9553 16.4611C11.1032 17.356 11.2617 18.2087 11.2934 18.356C11.3568 18.6087 11.3462 18.5982 10.9659 18.2508C10.4377 17.756 10.1208 17.2402 9.87781 16.4927C9.72991 16.0506 9.62427 15.8716 9.46581 15.8506C9.15946 15.8085 9.001 16.0611 8.93761 16.7138C8.89536 17.0928 8.83197 17.3033 8.7369 17.3033C8.53618 17.3033 7.84952 16.4717 7.57485 15.8716C7.42696 15.5769 7.25793 15.0084 7.18399 14.6084C7.07835 13.9873 7.02552 13.882 6.82481 13.8504C6.52902 13.8083 6.31774 14.1978 6.14871 15.1242C6.07476 15.5137 5.99025 15.8295 5.948 15.8295C5.83179 15.8295 5.45149 15.3768 5.2719 15.0084C5.16626 14.8189 5.03949 14.261 4.97611 13.7767C4.88103 13.0714 4.81765 12.8714 4.65919 12.8187C4.40565 12.7451 3.94083 13.124 3.56053 13.7241C3.40207 13.9873 3.25417 14.2189 3.23304 14.2399C3.21192 14.2715 3.03233 14.1241 2.82105 13.9241C2.12382 13.2609 1.72239 12.1871 1.72239 10.9765C1.72239 10.2396 1.58506 9.9764 1.26814 10.1027C0.866704 10.2501 0.940652 11.8818 1.40547 13.1135C1.64844 13.7557 2.18721 14.4399 2.81048 14.8926C3.43376 15.3453 3.59222 15.3032 3.90914 14.5978L4.17324 13.9873L4.43734 14.8084C4.63806 15.4611 4.79652 15.7348 5.1557 16.0927C5.90574 16.8401 6.79312 16.9665 6.79312 16.3348C6.79312 16.1874 6.94101 16.3348 7.22624 16.7559C7.6488 17.3981 8.07136 17.7876 8.81084 18.2297C9.27566 18.514 9.4975 18.5245 9.63484 18.2718C9.72991 18.0929 9.81443 18.1455 10.406 18.7245C11.4096 19.7035 12.6773 20.2404 12.9519 19.8088C13.0576 19.6509 13.0048 19.5561 12.635 19.2087C12.0857 18.6824 11.9167 18.1666 11.7054 16.4085C11.5469 15.0821 11.2617 13.6609 11.0293 13.0609C10.9236 12.7766 10.9236 12.7766 11.3251 12.7766C11.9695 12.7766 12.0434 12.5977 11.7793 11.6292C11.6526 11.1765 11.3779 10.4185 11.1455 9.94482C10.8074 9.22897 10.7652 9.09212 10.9236 9.09212C11.0187 9.09212 11.1561 9.01843 11.23 8.94474C11.5047 8.60787 10.7018 5.84974 9.88837 4.35488C8.99043 2.69159 8.18757 1.74414 7.34245 1.31253C5.88461 0.575624 4.88103 1.12304 3.58166 3.38638C3.19079 4.08118 2.56751 4.99704 2.20833 5.41813C1.52167 6.24978 0.391323 7.09195 -0.0206732 7.09195C-0.781282 7.09195 -2.50322 5.34444 -3.49623 3.55482C-4.27797 2.1547 -4.76392 1.56518 -5.38719 1.24936C-5.92596 0.986185 -6.34852 0.933548 -6.83446 1.08093Z" fill="url(#paint0_linear_40001043_2387)" stroke="url(#paint1_linear_40001043_2387)" stroke-width="0.8"/>
</g>
<defs>
<linearGradient id="paint0_linear_40001043_2387" x1="0" y1="20" x2="0" y2="1" gradientUnits="userSpaceOnUse">
<stop stop-color="#FB923C"/>
<stop offset="0.5" stop-color="#FB7185"/>
<stop offset="1" stop-color="#F472B6"/>
</linearGradient>
<linearGradient id="paint1_linear_40001043_2387" x1="0" y1="20" x2="0" y2="1" gradientUnits="userSpaceOnUse">
<stop stop-color="#FB923C"/>
<stop offset="0.5" stop-color="#FB7185"/>
<stop offset="1" stop-color="#F472B6"/>
</linearGradient>
<clipPath id="clip0_40001043_2387">
<rect width="14" height="21" fill="white"/>
</clipPath>
</defs>
</svg>
