<svg width="24" height="24" viewBox="0 0 24 24" fill="none" xmlns="http://www.w3.org/2000/svg">
<path d="M7.44883 12.6H20.9526L4.19383 20.1938L7.44883 12.6ZM20.9563 11.4H7.44883L4.19383 3.80627L20.9526 11.4H20.9563ZM2.87758 3.78752L6.39883 12L2.87758 20.2125C2.82508 20.3363 2.79883 20.4713 2.79883 20.6063C2.79883 21.15 3.24133 21.6 3.78508 21.6C3.92383 21.6 4.06258 21.57 4.19383 21.5138L22.3813 13.2713C22.8801 13.0463 23.2026 12.5475 23.2026 12C23.2026 11.4525 22.8801 10.9538 22.3813 10.7288L4.19383 2.48627C4.06633 2.43002 3.92758 2.40002 3.78508 2.40002C3.24133 2.40002 2.79883 2.85002 2.79883 3.39377C2.79883 3.52877 2.82508 3.66377 2.87758 3.78752Z" fill="#23262F"/>
</svg>
