<svg width="64" height="56" viewBox="0 0 64 56" fill="none" xmlns="http://www.w3.org/2000/svg">
<path d="M28 12.5H48C56.5604 12.5 63.5 19.4396 63.5 28C63.5 36.5604 56.5604 43.5 48 43.5H28C19.4396 43.5 12.5 36.5604 12.5 28C12.5 19.4396 19.4396 12.5 28 12.5Z" fill="white"/>
<path d="M28 12.5H48C56.5604 12.5 63.5 19.4396 63.5 28C63.5 36.5604 56.5604 43.5 48 43.5H28C19.4396 43.5 12.5 36.5604 12.5 28C12.5 19.4396 19.4396 12.5 28 12.5Z" stroke="#D4D4D8"/>
<circle cx="28" cy="28" r="12" fill="#E6E8EC"/>
</svg>
