<svg width="24" height="24" viewBox="0 0 24 24" fill="none" xmlns="http://www.w3.org/2000/svg">
<path d="M7.08837 5.05963C6.71101 5.17599 6.4044 5.36991 6.02704 5.74224C5.09936 6.66531 4.13237 8.59677 3.84149 10.1326C3.72356 10.7532 3.77073 10.9626 4.02231 10.9626C4.15595 10.9626 4.13237 11.0324 3.85721 11.6219C3.46412 12.4442 3.19683 13.4215 3.32261 13.5767C3.36978 13.631 3.5506 13.6775 3.7157 13.6775H4.01444L3.90438 14.0498C3.7157 14.6704 3.49557 15.8494 3.43268 16.5088C3.35406 17.5172 3.1811 18.0059 2.78802 18.3782C2.43424 18.7195 2.41066 18.9057 2.69368 18.991C2.96098 19.0763 3.93583 18.5411 4.4547 18.0291C4.87137 17.6103 4.93426 17.5792 4.98143 17.7111C5.06791 17.936 5.28018 17.905 5.79905 17.5715C6.29434 17.2534 6.69528 16.8501 6.89969 16.4545L7.02547 16.2063L7.1434 16.4157C7.26919 16.6562 7.37139 16.6717 7.7802 16.501C8.34624 16.2683 8.71574 15.7796 8.928 14.9729L9.03807 14.5696L9.25033 15.0117C9.49405 15.5314 9.63556 15.578 10.0601 15.2522C10.9485 14.5851 11.4123 13.6155 11.4123 12.4364C11.4123 11.8159 11.2944 11.5909 11.0349 11.7305C10.8777 11.8081 10.862 11.8857 10.862 12.3899C10.862 13.1113 10.6576 13.7784 10.2802 14.2826C9.87927 14.8255 9.80065 14.8333 9.51763 14.3756C9.38398 14.1662 9.17172 13.9102 9.03807 13.8249C8.69215 13.5767 8.5585 13.693 8.48775 14.2748C8.40913 14.9962 8.28335 15.3608 8.02391 15.6555C7.89026 15.8029 7.75661 15.927 7.72516 15.927C7.69372 15.927 7.63082 15.7021 7.58365 15.4306C7.46573 14.7557 7.33208 14.492 7.09623 14.492C6.91541 14.492 6.89183 14.5385 6.80535 15.0505C6.75031 15.3608 6.63239 15.7719 6.54591 15.958C6.37295 16.3071 5.79119 17.013 5.67326 17.013C5.64181 17.013 5.57106 16.8035 5.52389 16.5553C5.37452 15.8107 5.0286 15.7176 4.83992 16.3692C4.6591 16.9664 4.17954 17.7033 3.84935 17.874C3.70784 17.9516 3.69211 17.9438 3.73928 17.8197C3.77073 17.7421 3.86507 17.2379 3.95155 16.7027C4.1874 15.2677 4.40753 14.2515 4.62766 13.6155C4.73772 13.3052 4.80061 13.0027 4.77703 12.9406C4.69841 12.7389 4.50973 12.7234 4.2896 12.8941C4.17168 12.9872 4.03803 13.057 3.97514 13.057C3.74715 13.057 4.21885 11.94 4.91068 10.8307C5.15439 10.4429 5.35879 10.0706 5.35879 10.0085C5.35879 9.79133 5.06791 9.77581 4.79275 9.97749C4.3525 10.2955 4.34463 10.2955 4.42325 9.94646C4.72986 8.61228 5.65754 6.85923 6.47515 6.06027C7.1434 5.41645 7.72516 5.37766 8.29121 5.95167C8.47203 6.13008 8.69215 6.41708 8.77863 6.57998C9.67487 8.36406 11.318 10.0318 12.1592 10.0318C12.9296 10.024 14.4312 8.62779 15.2645 7.12296C15.7834 6.19989 15.9957 5.91289 16.3259 5.72672C16.7268 5.49402 16.9234 5.48626 17.3636 5.6957C18.0083 6.00597 18.7866 7.06091 19.4076 8.49593C19.6749 9.08545 20.0051 10.1869 19.9501 10.249C19.9344 10.2645 19.7929 10.1637 19.6356 10.0318C19.3448 9.77581 19.1482 9.75254 19.0146 9.96198C18.9517 10.0628 19.0146 10.2102 19.2897 10.6291C19.8715 11.4978 20.5555 12.9794 20.4375 13.1035C20.4139 13.119 20.2646 13.0492 20.1073 12.9406C19.7693 12.7157 19.7221 12.7079 19.5885 12.863C19.502 12.9639 19.5177 13.088 19.6907 13.5844C19.958 14.3446 20.0838 14.8953 20.3275 16.3924C20.4375 17.0518 20.5555 17.6801 20.579 17.7887C20.6262 17.9748 20.6183 17.9671 20.3353 17.7111C19.9422 17.3465 19.7064 16.9664 19.5256 16.4157C19.4155 16.0899 19.3369 15.958 19.219 15.9425C18.991 15.9115 18.8731 16.0977 18.8259 16.5786C18.7944 16.8578 18.7473 17.013 18.6765 17.013C18.5271 17.013 18.0161 16.4002 17.8117 15.958C17.7017 15.7408 17.5759 15.322 17.5208 15.0272C17.4422 14.5696 17.4029 14.492 17.2535 14.4687C17.0334 14.4377 16.8762 14.7247 16.7504 15.4073C16.6954 15.6943 16.6325 15.927 16.601 15.927C16.5145 15.927 16.2315 15.5935 16.0979 15.322C16.0193 15.1824 15.9249 14.7712 15.8777 14.4144C15.807 13.8947 15.7598 13.7473 15.6419 13.7085C15.4532 13.6542 15.1073 13.9335 14.8243 14.3756C14.7064 14.5696 14.5963 14.7402 14.5806 14.7557C14.5648 14.779 14.4312 14.6704 14.274 14.523C13.7551 14.0343 13.4563 13.2431 13.4563 12.3511C13.4563 11.8081 13.3541 11.6142 13.1183 11.7073C12.8195 11.8159 12.8746 13.0182 13.2205 13.9257C13.4013 14.3989 13.8023 14.9031 14.2661 15.2367C14.7299 15.5702 14.8479 15.5392 15.0837 15.0195L15.2803 14.5696L15.4768 15.1746C15.6262 15.6555 15.7441 15.8572 16.0114 16.1209C16.5696 16.6717 17.23 16.7648 17.23 16.2993C17.23 16.1907 17.34 16.2993 17.5523 16.6096C17.8668 17.0828 18.1812 17.3698 18.7315 17.6956C19.0775 17.905 19.2426 17.9128 19.3448 17.7266C19.4155 17.5947 19.4784 17.6335 19.9187 18.0602C20.6655 18.7815 21.6089 19.1771 21.8133 18.8591C21.8919 18.7428 21.8526 18.6729 21.5775 18.417C21.1687 18.0291 21.0429 17.649 20.8856 16.3536C20.7677 15.3763 20.5555 14.3291 20.3825 13.887C20.3039 13.6775 20.3039 13.6775 20.6026 13.6775C21.0822 13.6775 21.1372 13.5457 20.9407 12.832C20.8463 12.4985 20.6419 11.94 20.469 11.5909C20.2174 11.0635 20.186 10.9626 20.3039 10.9626C20.3746 10.9626 20.4768 10.9083 20.5319 10.854C20.7363 10.6058 20.1388 8.5735 19.5334 7.47202C18.8652 6.24643 18.2677 5.54832 17.6388 5.23028C16.5539 4.6873 15.807 5.09066 14.84 6.75839C14.5491 7.27034 14.0853 7.94519 13.818 8.25546C13.307 8.86826 12.4658 9.48881 12.1592 9.48881C11.5931 9.48881 10.3117 8.20117 9.57266 6.8825C8.9909 5.85083 8.62926 5.41645 8.16542 5.18374C7.76447 4.98982 7.45001 4.95104 7.08837 5.05963Z" fill="#23262F" stroke="#23262F" stroke-width="0.3"/>
</svg>
