<svg width="168" height="168" viewBox="0 0 168 168" fill="none" xmlns="http://www.w3.org/2000/svg">
<g opacity="0.25" filter="url(#filter0_f_40000637_129533)">
<mask id="mask0_40000637_129533" style="mask-type:alpha" maskUnits="userSpaceOnUse" x="24" y="24" width="120" height="120">
<circle cx="84" cy="84" r="60" fill="#F3F4F6"/>
</mask>
<g mask="url(#mask0_40000637_129533)">
<rect x="24" y="24" width="120" height="120" rx="8" fill="url(#paint0_linear_40000637_129533)"/>
</g>
</g>
<mask id="mask1_40000637_129533" style="mask-type:alpha" maskUnits="userSpaceOnUse" x="44" y="44" width="80" height="80">
<circle cx="84" cy="84" r="40" fill="#F3F4F6"/>
</mask>
<g mask="url(#mask1_40000637_129533)">
<path d="M44 52C44 47.5817 47.5817 44 52 44H116C120.418 44 124 47.5817 124 52V116C124 120.418 120.418 124 116 124H52C47.5817 124 44 120.418 44 116V52Z" fill="url(#paint1_linear_40000637_129533)"/>
<path d="M69.0425 64.1704C67.9698 64.5028 67.0983 65.0569 66.0256 66.1207C63.3887 68.758 60.64 74.2765 59.8132 78.6647C59.478 80.4377 59.6121 81.036 60.3272 81.036C60.7071 81.036 60.64 81.2355 59.8579 82.9199C58.7405 85.2691 57.9807 88.0616 58.3383 88.5048C58.4724 88.6599 58.9864 88.7929 59.4556 88.7929H60.3048L59.992 89.8567C59.4556 91.6297 58.8299 94.9984 58.6511 96.8822C58.4277 99.7634 57.936 101.16 56.8187 102.223C55.8131 103.199 55.746 103.73 56.5505 103.974C57.3103 104.218 60.0814 102.689 61.5563 101.226C62.7406 100.029 62.9194 99.9407 63.0535 100.317C63.2993 100.96 63.9027 100.871 65.3776 99.9185C66.7854 99.0098 67.9251 97.8574 68.5062 96.7271L68.8637 96.0179L69.1989 96.6163C69.5565 97.3033 69.847 97.3476 71.009 96.8601C72.618 96.1952 73.6683 94.799 74.2717 92.4941L74.5845 91.3416L75.1879 92.6049C75.8806 94.0898 76.2829 94.2227 77.4896 93.2919C80.0148 91.3859 81.3333 88.6156 81.3333 85.2469C81.3333 83.4739 80.9981 82.8312 80.2607 83.2301C79.8137 83.4518 79.769 83.6734 79.769 85.1139C79.769 87.1751 79.188 89.081 78.1153 90.5216C76.9757 92.073 76.7522 92.0951 75.9477 90.7875C75.5678 90.1892 74.9644 89.4578 74.5845 89.214C73.6013 88.5048 73.2214 88.8372 73.0202 90.4994C72.7968 92.5605 72.4392 93.6022 71.7018 94.4444C71.3219 94.8654 70.942 95.22 70.8526 95.22C70.7632 95.22 70.5844 94.5773 70.4503 93.8016C70.1151 91.8735 69.7352 91.12 69.0648 91.12C68.5508 91.12 68.4838 91.253 68.238 92.7157C68.0816 93.6022 67.7464 94.7768 67.5005 95.3087C67.0089 96.306 65.3552 98.3228 65.02 98.3228C64.9306 98.3228 64.7295 97.7244 64.5954 97.0152C64.1708 94.8876 63.1876 94.6217 62.6513 96.4833C62.1373 98.1898 60.7741 100.295 59.8355 100.783C59.4333 101.004 59.3886 100.982 59.5227 100.628C59.6121 100.406 59.8802 98.9655 60.126 97.4363C60.7965 93.3362 61.4222 90.4329 62.0479 88.6156C62.3607 87.7291 62.5395 86.8648 62.4725 86.6875C62.249 86.1113 61.7127 86.0669 61.087 86.5545C60.7518 86.8205 60.3719 87.0199 60.1931 87.0199C59.545 87.0199 60.8858 83.8285 62.8524 80.6593C63.5451 79.5512 64.1262 78.4874 64.1262 78.3101C64.1262 77.6895 63.2993 77.6452 62.5172 78.2214C61.2657 79.1301 61.2434 79.1301 61.4669 78.1328C62.3384 74.3208 64.9753 69.3121 67.2994 67.0293C69.1989 65.1898 70.8526 65.079 72.4616 66.7191C72.9755 67.2288 73.6013 68.0488 73.8471 68.5142C76.3946 73.6116 81.0651 78.3765 83.4563 78.3765C85.6463 78.3544 89.9145 74.3651 92.2833 70.0656C93.7582 67.4283 94.3616 66.6082 95.3002 66.0764C96.4398 65.4115 96.9985 65.3893 98.25 65.9877C100.082 66.8742 102.295 69.8883 104.06 73.9884C104.82 75.6727 105.759 78.8198 105.602 78.9971C105.557 79.0414 105.155 78.7533 104.708 78.3765C103.881 77.6452 103.323 77.5787 102.943 78.1771C102.764 78.4652 102.943 78.8863 103.725 80.0831C105.379 82.5653 107.323 86.7983 106.988 87.1529C106.921 87.1972 106.496 86.9978 106.049 86.6875C105.088 86.0448 104.954 86.0226 104.574 86.4659C104.328 86.754 104.373 87.1086 104.865 88.527C105.624 90.6989 105.982 92.2724 106.675 96.5498C106.988 98.4336 107.323 100.229 107.39 100.539C107.524 101.071 107.502 101.049 106.697 100.317C105.58 99.2758 104.909 98.1898 104.395 96.6163C104.083 95.6855 103.859 95.3087 103.524 95.2644C102.876 95.1757 102.541 95.7076 102.406 97.0817C102.317 97.8795 102.183 98.3228 101.982 98.3228C101.557 98.3228 100.105 96.572 99.5237 95.3087C99.2109 94.6881 98.8533 93.4914 98.6969 92.6492C98.4734 91.3416 98.3617 91.12 97.9371 91.0535C97.3114 90.9648 96.8644 91.7849 96.5069 93.7352C96.3505 94.5552 96.1717 95.22 96.0823 95.22C95.8365 95.22 95.032 94.2671 94.6521 93.4914C94.4286 93.0924 94.1605 91.9178 94.0264 90.8984C93.8253 89.4135 93.6912 88.9924 93.356 88.8816C92.8196 88.7264 91.8364 89.5243 91.0319 90.7875C90.6967 91.3416 90.3838 91.8292 90.3391 91.8735C90.2944 91.94 89.9145 91.6297 89.4676 91.2086C87.9927 89.8124 87.1435 87.5518 87.1435 85.0031C87.1435 83.4518 86.853 82.8977 86.1826 83.1636C85.3334 83.4739 85.4898 86.9091 86.4731 89.5021C86.9871 90.854 88.1268 92.2946 89.4453 93.2476C90.7637 94.2006 91.0989 94.1119 91.7693 92.627L92.328 91.3416L92.8867 93.0703C93.3113 94.4444 93.6465 95.0206 94.4063 95.7741C95.9929 97.3476 97.8701 97.6136 97.8701 96.2838C97.8701 95.9736 98.1829 96.2838 98.7863 97.1703C99.6802 98.5223 100.574 99.3423 102.138 100.273C103.122 100.871 103.591 100.894 103.881 100.362C104.083 99.985 104.261 100.096 105.513 101.315C107.636 103.376 110.317 104.506 110.898 103.597C111.122 103.265 111.01 103.066 110.228 102.334C109.066 101.226 108.708 100.14 108.261 96.439C107.926 93.6465 107.323 90.6546 106.831 89.3913C106.608 88.7929 106.608 88.7929 107.457 88.7929C108.82 88.7929 108.976 88.4162 108.418 86.3772C108.15 85.4242 107.569 83.8285 107.077 82.8312C106.362 81.3242 106.273 81.036 106.608 81.036C106.809 81.036 107.099 80.8809 107.256 80.7258C107.837 80.0166 106.138 74.21 104.418 71.0629C102.518 67.5612 100.82 65.5666 99.0321 64.658C95.9482 63.1066 93.8253 64.259 91.0766 69.024C90.2497 70.4867 88.9313 72.4148 88.1715 73.3013C86.7189 75.0522 84.3278 76.8252 83.4563 76.8252C81.8473 76.8252 78.2047 73.1462 76.1041 69.3786C74.4504 66.431 73.4225 65.1899 72.104 64.525C70.9643 63.9709 70.0704 63.8601 69.0425 64.1704Z" fill="white" stroke="white" stroke-width="0.3"/>
</g>
<g filter="url(#filter1_d_40000637_129533)">
<path d="M83.2506 38.4707C93.9199 37.601 103.604 37.9999 110.615 39.3098C114.135 39.9675 116.867 40.8338 118.693 41.8102C120.613 42.8367 121.018 43.6903 121.052 44.1046C121.086 44.5188 120.824 45.4268 119.096 46.7509C117.452 48.0101 114.897 49.3083 111.53 50.5275C104.823 52.9556 95.3314 54.9176 84.6622 55.7873C73.9932 56.6569 64.3095 56.258 57.2985 54.9481C53.7783 54.2904 51.047 53.4231 49.2209 52.4467C47.3006 51.4199 46.8954 50.5665 46.8616 50.1523C46.828 49.7379 47.0898 48.8299 48.8181 47.5061C50.4621 46.2468 53.0169 44.9495 56.3841 43.7304C63.0904 41.3024 72.5816 39.3404 83.2506 38.4707Z" stroke="#FFD52E" stroke-width="4"/>
</g>
<defs>
<filter id="filter0_f_40000637_129533" x="0" y="0" width="168" height="168" filterUnits="userSpaceOnUse" color-interpolation-filters="sRGB">
<feFlood flood-opacity="0" result="BackgroundImageFix"/>
<feBlend mode="normal" in="SourceGraphic" in2="BackgroundImageFix" result="shape"/>
<feGaussianBlur stdDeviation="12" result="effect1_foregroundBlur_40000637_129533"/>
</filter>
<filter id="filter1_d_40000637_129533" x="35.8584" y="29.008" width="96.1968" height="40.2417" filterUnits="userSpaceOnUse" color-interpolation-filters="sRGB">
<feFlood flood-opacity="0" result="BackgroundImageFix"/>
<feColorMatrix in="SourceAlpha" type="matrix" values="0 0 0 0 0 0 0 0 0 0 0 0 0 0 0 0 0 0 127 0" result="hardAlpha"/>
<feOffset dy="2"/>
<feGaussianBlur stdDeviation="4.5"/>
<feColorMatrix type="matrix" values="0 0 0 0 1 0 0 0 0 1 0 0 0 0 1 0 0 0 1 0"/>
<feBlend mode="normal" in2="BackgroundImageFix" result="effect1_dropShadow_40000637_129533"/>
<feBlend mode="normal" in="SourceGraphic" in2="effect1_dropShadow_40000637_129533" result="shape"/>
</filter>
<linearGradient id="paint0_linear_40000637_129533" x1="84" y1="24" x2="84" y2="144" gradientUnits="userSpaceOnUse">
<stop stop-color="#FB923C"/>
<stop offset="0.5" stop-color="#FB7185"/>
<stop offset="1" stop-color="#F472B6"/>
</linearGradient>
<linearGradient id="paint1_linear_40000637_129533" x1="84" y1="44" x2="84" y2="124" gradientUnits="userSpaceOnUse">
<stop stop-color="#FB923C"/>
<stop offset="0.5" stop-color="#FB7185"/>
<stop offset="1" stop-color="#F472B6"/>
</linearGradient>
</defs>
</svg>
